{"title":"Ma&amp;scaron;a ja karu - Õlimaal (Eesti keeles)","uid":8862015,"size":583564643,"categoryP":"video","categoryS":"movies","magnet":"?xt=urn:btih:5d4b99da2a0e5c01c9ef9867f0ef834e9166d81e&amp;dn=Ma%26scaron%3Ba+ja+karu+-+%26Otilde%3Blimaal+%28Eesti+keeles%29&amp;tr=udp%3A%2F%2Ftracker.openbittorrent.com%3A80&amp;tr=udp%3A%2F%2Fopen.demonii.com%3A1337&amp;tr=udp%3A%2F%2Ftracker.coppersurfer.tk%3A6969&amp;tr=udp%3A%2F%2Fexodus.desync.com%3A6969","seeders":2,"leechers":1,"uploader":"craptor","files":1,"time":1377799880,"description":"Format                                   : MPEG-4\nFormat profile                           : Base Media / Version 2\nCodec ID                                 : mp42\nFile size                                : 557 MiB\nDuration                                 : 55mn 52s\nOverall bit rate                         : 1 393 Kbps\nWriting library                          : AVS \n\nVideo\nID                                       : 1\nFormat                                   : MPEG-4 Visual\nFormat profile                           : Advanced Simple@L4\nFormat settings, BVOP                    : No\nFormat settings, QPel                    : No\nFormat settings, GMC                     : No warppoints\nFormat settings, Matrix                  : Default (H.263)\nCodec ID                                 : 20\nDuration                                 : 55mn 52s\nBit rate mode                            : Constant\nBit rate                                 : 1 199 Kbps\nNominal bit rate                         : 64.0 Kbps\nWidth                                    : 1 024 pixels\nHeight                                   : 576 pixels\nDisplay aspect ratio                     : 16:9\nFrame rate mode                          : Constant\nFrame rate                               : 25.000 fps\nColor space                              : YUV\nChroma subsampling                       : 4:2:0\nBit depth                                : 8 bits\nScan type                                : Progressive\nCompression mode                         : Lossy\nBits/(Pixel*Frame)                       : 0.081\nStream size                              : 479 MiB (86%)\nWriting library                          : XviD 62\nLanguage                                 : English\nEncoded date                             : UTC 2013-07-11 16:12:09\nTagged date                              : UTC 2013-07-11 16:12:09\n\nAudio\nID                                       : 2\nFormat                                   : AAC\nFormat/Info                              : Advanced Audio Codec\nFormat profile                           : LC\nCodec ID                                 : 40\nDuration                                 : 55mn 52s\nBit rate mode                            : Constant\nBit rate                                 : 192 Kbps\nChannel(s)                               : 2 channels\nChannel positions                        : Front: L R\nSampling rate                            : 48.0 KHz\nCompression mode                         : Lossy\nStream size                              : 75.6 MiB (14%)\nLanguage                                 : English\nEncoded date                             : UTC 2013-07-11 16:12:10\nTagged date                              : UTC 2013-07-11 16:12:10\nmdhd_Duration                            : 3352085\n","torrent":{"xt":"urn:btih:5d4b99da2a0e5c01c9ef9867f0ef834e9166d81e","amp;dn":"Ma%26scaron%3Ba+ja+karu+-+%26Otilde%3Blimaal+%28Eesti+keeles%29","amp;tr":["udp%3A%2F%2Ftracker.openbittorrent.com%3A80","udp%3A%2F%2Fopen.demonii.com%3A1337","udp%3A%2F%2Ftracker.coppersurfer.tk%3A6969","udp%3A%2F%2Fexodus.desync.com%3A6969"],"infoHash":"5d4b99da2a0e5c01c9ef9867f0ef834e9166d81e","infoHashBuffer":{"type":"Buffer","data":[93,75,153,218,42,14,92,1,201,239,152,103,240,239,131,78,145,102,216,30]},"announce":[],"urlList":[]}}